<mxfile host="65bd71144e">
    <diagram id="pl-FxzCDvtGJDBXuIbYB" name="Page-1">
        <mxGraphModel dx="1010" dy="747" grid="1" gridSize="10" guides="1" tooltips="1" connect="1" arrows="1" fold="1" page="1" pageScale="1" pageWidth="1654" pageHeight="1169" math="0" shadow="0">
            <root>
                <mxCell id="0"/>
                <mxCell id="1" style="locked=1;" parent="0"/>
                <mxCell id="34" value="Section" style="locked=1;" parent="0"/>
                <mxCell id="35" value="Pool" style="swimlane;childLayout=stackLayout;resizeParent=1;resizeParentMax=0;startSize=20;html=1;" vertex="1" parent="34">
                    <mxGeometry x="40" y="40" width="900" height="1080" as="geometry"/>
                </mxCell>
                <mxCell id="36" value="Material Center" style="swimlane;startSize=20;html=1;" vertex="1" parent="35">
                    <mxGeometry y="20" width="300" height="1060" as="geometry"/>
                </mxCell>
                <mxCell id="37" value="Lane 2" style="swimlane;startSize=20;html=1;" vertex="1" parent="35">
                    <mxGeometry x="300" y="20" width="300" height="1060" as="geometry"/>
                </mxCell>
                <mxCell id="38" value="Lane 3" style="swimlane;startSize=20;html=1;" vertex="1" parent="35">
                    <mxGeometry x="600" y="20" width="300" height="1060" as="geometry"/>
                </mxCell>
                <mxCell id="39" value="Material" style="locked=1;" parent="0"/>
                <mxCell id="42" style="edgeStyle=none;html=1;exitX=0.5;exitY=1;exitDx=0;exitDy=0;entryX=0.5;entryY=0;entryDx=0;entryDy=0;" edge="1" parent="39" source="40" target="41">
                    <mxGeometry relative="1" as="geometry"/>
                </mxCell>
                <mxCell id="40" value="Packing List" style="rounded=1;whiteSpace=wrap;html=1;" vertex="1" parent="39">
                    <mxGeometry x="130" y="130" width="120" height="60" as="geometry"/>
                </mxCell>
                <mxCell id="41" value="Material Receive" style="rounded=1;whiteSpace=wrap;html=1;" vertex="1" parent="39">
                    <mxGeometry x="130" y="240" width="120" height="60" as="geometry"/>
                </mxCell>
            </root>
        </mxGraphModel>
    </diagram>
</mxfile>